<svg id="Layer_1" data-name="Layer 1" xmlns="http://www.w3.org/2000/svg" viewBox="0 0 579 603"><defs><style>.cls-1{fill:#f9861a;}</style></defs><polygon class="cls-1" points="123.23 306.45 115.19 327.07 298.22 327.07 306.73 306.45 123.23 306.45"/><polygon class="cls-1" points="278.38 115.9 60.31 485.89 85 485.89 290.38 135.42 278.38 115.9"/><polygon class="cls-1" points="186.13 415.76 320.02 189 331.24 207.31 212.55 415.76 186.13 415.76"/><polygon class="cls-1" points="275.35 23.87 528.52 442.58 499.86 442.58 261.42 45.96 275.35 23.87"/><path class="cls-1" d="M324.8,63.16l15.87,26.25s101,20,147.1,112.87,19,161.88,19,161.88l15.7,26S564.79,303.35,506.38,189C457.54,99.16,366.79,68.22,324.8,63.16Z"/><path class="cls-1" d="M85.45,394.37,71,418.13S11,321.2,67.25,202.62c0,0,50.22-116.24,181.43-139.56,7.18,6.69,16.12,20.49,16.12,20.49s-113.26,9.06-174,123.9C43,300.41,85.45,394.37,85.45,394.37Z"/><path class="cls-1" d="M128.1,461.52l-12,20.21S185.19,556,294,554c116.06,1,188.53-92.44,188.53-92.44l-12.73-20.6s-55.62,85.19-167.61,90.35C195.59,538.49,128.1,461.52,128.1,461.52Z"/></svg>